<?xml version="1.0" encoding="UTF-8"?><svg xmlns="http://www.w3.org/2000/svg" viewBox="0 0 32 37.2"><g id="a"/><g id="b"><g id="c"><path fill="#d3d3d3" d="M31.74,36.5c-2.25-.86-2.87-1.98-3.29-5.04-.45-3.2-.88-6.83-1.3-10.35L24.59,0,12.71,16.46c-2.53,3.5-5.51,7.96-7.65,10.33-1.89,2.05-3.33,2.36-4.67,2.26l-.24-.02-.15,.63,.29,.05s2.58,.25,4.75,.75c1.87,.42,4.39,1.42,4.42,1.43l.28,.08,.15-.63-.23-.09c-1-.37-1.57-1.07-1.78-1.63-.18-.49,0-1.2,.57-2.19,1.37-2.45,3.72-6.02,5.07-8.03l10.11,2.4c.36,3.08,.68,6.98,.78,9.58,.06,1.31-.04,1.97-.36,2.26-.27,.25-.86,.71-1.77,.6l-.23-.03-.26,.62,.32,.06s2.03,.14,4.65,.72c2.77,.62,4.7,1.5,4.73,1.51l.26,.08,.25-.61-.26-.1ZM22.07,7.05c.83,5.73,1.18,9.28,1.43,12.68-1.04-.21-3.12-.7-4.84-1.11-1.45-.34-2.94-.7-4.01-.99,.59-.85,7.14-10.2,7.41-10.58Z"/></g></g></svg>
