<?xml version="1.0" encoding="UTF-8"?><svg xmlns="http://www.w3.org/2000/svg" viewBox="0 0 23.98 33.75"><g id="a"/><g id="b"><g id="c"><path d="M23.07,27.23c-2.14,3.47-2.94,4.33-6.89,4.33h-5.71c-2.56,0-2.72-.16-2.72-3.1v-11.31h7.26c1.98,0,2.94,.27,4.43,3.47h.64l-2.67-7.42h-.8c.37,1.6,.11,1.92-2.3,1.92H7.74V2.08l9.51,.11c3.26,.05,3.63,.27,4.59,3.9h.75L21.57,.32H4.91C3.9,.32,2.62,.21,.75,.05l-.75-.05L.05,.69c.21,0,.32,0,.59,.05,2.62,.27,3.47,1.01,3.47,3.15V29.85c0,2.14-.85,2.88-3.47,3.15-.27,.05-.37,.05-.59,.05l-.05,.69,.75-.05c1.87-.16,3.15-.27,4.17-.27,0,0,5.07-.05,8.33,0,3.26,.05,8.38,.27,8.38,.27,.53-2.03,.43-3.1,2.35-6.57l-.91,.11Z"/></g></g></svg>