<?xml version="1.0" encoding="UTF-8"?><svg xmlns="http://www.w3.org/2000/svg" viewBox="0 0 35.12 19.25"><g id="a"/><g id="b"><g id="c"><g><path d="M13.97,14.51l-.99,1.29c-1.48,1.89-1.7,2.01-3.89,2.01h-3.12c-1.39,0-1.44-.06-1.44-1.65V2.35c0-1.14,.44-1.54,1.88-1.69,.14-.03,.19-.03,.31-.03h.08l.04-.57-.52,.04c-1.08,.09-1.77,.15-2.33,.15h-1.14C2.29,.26,1.6,.2,.52,.11l-.52-.04L.04,.64H.12c.12,0,.17,0,.32,.03,1.44,.15,1.87,.54,1.87,1.68v14.58c0,1.14-.44,1.54-1.88,1.69-.14,.03-.2,.03-.31,.03H.04l-.04,.57,.52-.04c.98-.08,1.75-.15,2.33-.15h1.14c2.37,0,8.31,.21,8.37,.21h.07l.02-.06c.32-1.2,.81-2.58,2.27-4.53l.1-.14h-.84Z"/><path d="M34.97,18.78c-1.33-.17-1.8-.7-2.42-2.3-.65-1.67-1.35-3.57-2.03-5.42L26.43,0l-4.3,10.41c-.91,2.21-1.95,5-2.8,6.56-.76,1.35-1.5,1.7-2.23,1.82l-.13,.02v.36h.16s1.43-.2,2.66-.21c1.07-.01,2.55,.21,2.57,.21h.16v-.35l-.14-.02c-.59-.07-.98-.37-1.17-.65-.16-.24-.15-.65,.02-1.25,.42-1.5,1.23-3.72,1.71-4.98h5.77c.59,1.61,1.26,3.68,1.65,5.07,.2,.7,.23,1.07,.1,1.27-.11,.17-.38,.5-.88,.55h-.13l-.06,.38h.18s1.11-.2,2.6-.22c1.57-.02,2.73,.21,2.75,.21h.15l.06-.35-.15-.02ZM25.98,4.13c1.18,2.99,1.83,4.86,2.4,6.66-.59,.02-1.78,.02-2.75,.02-.83,0-1.68,0-2.29-.02,.21-.53,2.55-6.42,2.64-6.66Z"/></g></g></g></svg>