<?xml version="1.0" encoding="UTF-8"?><svg xmlns="http://www.w3.org/2000/svg" viewBox="0 0 43.23 52.89"><g id="a"/><g id="b"><g id="c"><path d="M41.37,23.88L28.2,0l-.93,.7-10.47,7.78-10.48,7.78C.15,20.84-1.85,30.04,1.86,36.77c1.82,3.3,4.73,5.53,8.2,6.28,3.11,.68,6.31,.08,9.12-1.67l6.34,11.5,.92-.72,10.47-7.77c6.17-4.58,8.17-13.78,4.46-20.51ZM11.94,14.66c-.1,.23-.2,.46-.29,.69-.03,.08-.06,.17-.09,.25-.07,.19-.14,.38-.2,.57-.03,.08-.06,.16-.08,.25-.08,.25-.15,.5-.22,.75,0,.02-.01,.04-.02,.06-.07,.27-.13,.55-.19,.82-.02,.08-.03,.16-.05,.24-.04,.2-.08,.41-.11,.61-.01,.09-.03,.17-.04,.26-.03,.23-.06,.46-.08,.7,0,.05-.01,.1-.02,.14-.03,.28-.04,.56-.06,.84,0,.07,0,.14,0,.22,0,.21,0,.43,0,.64,0,.09,0,.18,0,.26,0,.22,.02,.44,.03,.66,0,.06,0,.13,.01,.19,.02,.28,.05,.56,.09,.84,0,.06,.02,.12,.03,.18,.03,.22,.07,.44,.11,.66,.02,.09,.03,.17,.05,.26,.04,.21,.09,.41,.14,.61,.02,.07,.03,.15,.05,.22,.07,.27,.15,.54,.23,.81,.01,.04,.03,.07,.04,.11,.08,.23,.16,.46,.25,.69,.03,.08,.06,.16,.1,.24,.08,.19,.16,.38,.24,.57,.04,.08,.07,.15,.11,.23,.12,.26,.25,.51,.39,.76l5.86,10.63c-2.38,1.51-5.09,2.04-7.71,1.47-2.89-.63-5.33-2.51-6.86-5.29-3.24-5.88-1.49-13.91,3.89-17.92l4.44-3.3s-.02,.05-.03,.08Zm10.51-7.86s-.04,.09-.06,.13c-.06,.13-.12,.25-.18,.38-.03,.07-.06,.14-.09,.21-.05,.12-.1,.23-.15,.35-.03,.08-.06,.15-.09,.23-.04,.11-.09,.23-.13,.35-.03,.08-.06,.17-.09,.25-.04,.12-.08,.23-.12,.35-.03,.08-.05,.17-.08,.26-.04,.12-.07,.25-.11,.37-.02,.09-.05,.17-.07,.26-.03,.13-.06,.26-.1,.4-.02,.08-.04,.17-.06,.25-.03,.15-.06,.3-.09,.45-.01,.07-.03,.15-.04,.22-.04,.23-.07,.45-.1,.69-.62,4.95,1.12,10.03,5.18,15.13,3.63,4.56,5.21,9.09,4.7,13.45-.03,.25-.07,.5-.11,.75-.01,.06-.02,.13-.03,.19-.04,.22-.09,.44-.14,.65,0,.02,0,.05-.02,.07-.06,.23-.12,.46-.19,.69-.02,.06-.03,.11-.05,.17-.06,.19-.12,.38-.19,.57-.01,.03-.02,.07-.04,.1-.08,.21-.16,.42-.25,.63-.02,.05-.04,.09-.06,.14-.07,.17-.15,.34-.23,.51-.02,.04-.03,.07-.05,.11-.09,.19-.19,.38-.29,.57-.02,.04-.04,.07-.06,.11-.08,.16-.17,.31-.26,.46-.02,.04-.04,.07-.06,.11-.1,.17-.21,.34-.31,.51-.02,.03-.03,.05-.05,.08-.09,.14-.19,.28-.28,.42-.02,.03-.05,.07-.07,.1-.11,.15-.21,.3-.32,.44l-.03,.04c-.1,.13-.19,.25-.29,.37l-.07,.09c-.21,.26-.41,.5-.61,.71l-.06,.07c-.19,.21-.37,.4-.54,.57l-.02,.02L14.11,28.02c-3.24-5.88-1.49-13.91,3.89-17.92l4.44-3.3Zm13.27,35.97l-4.57,3.39s.02-.05,.03-.07c.06-.12,.12-.25,.18-.38,.03-.06,.06-.12,.08-.18,.08-.18,.16-.37,.24-.56v-.02c.09-.2,.16-.4,.24-.6,.02-.06,.04-.13,.07-.2,.05-.14,.1-.28,.14-.42,.03-.08,.05-.16,.07-.24,.04-.13,.08-.27,.12-.4,.02-.09,.05-.17,.07-.26,.03-.14,.07-.27,.1-.41,.02-.09,.04-.18,.06-.27,.03-.15,.06-.3,.09-.45,.01-.08,.03-.16,.04-.25,.04-.21,.07-.43,.09-.65,0-.02,0-.04,0-.06,.36-3.08-.17-6.19-1.6-9.32-.86-1.88-2.03-3.75-3.52-5.63-.23-.29-.45-.58-.67-.87-.08-.11-.15-.21-.22-.32-.13-.18-.27-.37-.39-.55-.09-.13-.17-.26-.26-.39-.11-.16-.21-.32-.31-.48-.09-.15-.17-.29-.26-.43-.09-.14-.18-.29-.26-.43-.09-.16-.17-.31-.26-.47-.07-.13-.15-.26-.22-.4-.08-.16-.16-.33-.24-.49-.06-.12-.12-.25-.18-.37-.07-.16-.14-.32-.21-.48-.05-.13-.11-.25-.16-.38-.06-.16-.12-.32-.18-.47-.05-.13-.1-.25-.14-.38-.05-.16-.1-.31-.15-.47-.04-.13-.08-.25-.12-.38-.05-.16-.08-.31-.12-.47-.03-.13-.07-.25-.1-.38-.04-.15-.06-.31-.09-.46-.03-.13-.06-.26-.08-.39-.03-.15-.04-.29-.06-.44-.02-.13-.04-.27-.06-.4-.02-.14-.03-.28-.04-.43-.01-.14-.03-.27-.04-.41,0-.14,0-.27-.01-.41,0-.14-.01-.28-.01-.42,0-.13,0-.26,.01-.39,0-.15,0-.29,.01-.44,0-.12,.02-.25,.03-.37,.01-.15,.02-.31,.04-.46v-.05c.04-.23,.07-.46,.12-.69,.01-.07,.03-.14,.04-.2,.04-.2,.08-.4,.13-.6,.02-.06,.03-.13,.05-.19,.05-.18,.1-.36,.15-.54,.03-.1,.06-.2,.09-.3,.03-.1,.07-.21,.11-.31,.09-.25,.18-.49,.28-.72l.02-.06c.06-.15,.13-.3,.2-.45v-.02c1.09-2.34,2.59-4.04,3.53-4.97l12,21.75c3.24,5.88,1.49,13.91-3.89,17.92Z"/></g></g></svg>