<?xml version="1.0" encoding="UTF-8"?><svg xmlns="http://www.w3.org/2000/svg" viewBox="0 0 75.78 40.36"><g id="a"/><g id="b"><g id="c"><g><path d="M32.01,36.22c-1.85,1.71-6.91,3.53-10.94,3.99C10.56,41.4,1.26,35.68,.11,25.6-.98,16.05,6.09,6.86,17.13,5.61c6.79-.77,9.31,2,11.09,.62l1.14,6.75-.58,.07c-2.41-5.64-6.58-6.78-12.2-6.14-8.38,.95-13.29,9.31-11.91,18.12,1.49,9.34,8.99,14.78,16.95,13.87,5.89-.67,9.57-2.81,9.53-9.74l.9-.1-.05,7.15Z"/><path d="M75.06,32.86c-2.63,.03-3.56-.62-3.8-2.74l-2.93-25.79c-.24-2.12,.52-2.96,3.09-3.52,.26-.08,.37-.1,.58-.12l-.03-.7-.74,.14c-1.84,.37-3.1,.62-4.11,.74l-2.02,.23c-1.01,.11-2.29,.15-4.17,.21l-.75,.03,.13,.68c.21-.02,.32-.04,.59-.01,2.63-.03,3.56,.62,3.8,2.74l1.26,11.12-19.42,2.21-1.26-11.12c-.24-2.12,.52-2.96,3.09-3.52,.26-.08,.37-.1,.58-.12l-.03-.7-.74,.14c-1.84,.37-3.1,.62-4.11,.74l-2.02,.23c-1.01,.11-2.29,.15-4.17,.21l-.75,.03,.13,.68c.21-.02,.32-.04,.59-.01,2.63-.03,3.56,.62,3.81,2.74l2.93,25.79c.24,2.12-.52,2.96-3.09,3.52-.26,.08-.37,.1-.58,.12l.03,.7,.74-.14c1.84-.37,3.1-.62,4.11-.74l2.02-.23c1.01-.11,2.29-.15,4.17-.21l.75-.03-.13-.68c-.21,.02-.32,.04-.59,.01-2.63,.03-3.56-.62-3.81-2.74l-1.44-12.68,19.42-2.21,1.44,12.68c.24,2.12-.52,2.96-3.09,3.52-.26,.08-.37,.1-.58,.12l.03,.7,.74-.14c1.84-.37,3.1-.62,4.11-.74l2.02-.23c1.01-.11,2.29-.15,4.17-.21l.75-.03-.13-.68c-.21,.02-.32,.04-.59,.01Z"/></g></g></g></svg>