<?xml version="1.0" encoding="UTF-8"?><svg xmlns="http://www.w3.org/2000/svg" viewBox="0 0 35.03 33.75"><g id="a"/><g id="b"><g id="c"><path fill="#c8c8c8" d="M34.39,33c-2.62-.27-3.47-1.01-3.47-3.15V3.9c0-2.14,.85-2.88,3.47-3.15,.27-.05,.37-.05,.59-.05l.05-.69-.75,.05c-1.87,.16-3.15,.27-4.17,.27h-2.03c-1.01,0-2.3-.11-4.17-.27l-.75-.05,.05,.69c.21,0,.32,0,.59,.05,2.62,.27,3.47,1.01,3.47,3.15V15.09H7.74V3.9c0-2.14,.85-2.88,3.47-3.15,.27-.05,.37-.05,.59-.05l.05-.69-.75,.05c-1.87,.16-3.15,.27-4.17,.27h-2.03C3.9,.32,2.62,.21,.75,.05l-.75-.05L.05,.69c.21,0,.32,0,.59,.05,2.62,.27,3.47,1.01,3.47,3.15V29.85c0,2.14-.85,2.88-3.47,3.15-.27,.05-.37,.05-.59,.05l-.05,.69,.75-.05c1.87-.16,3.15-.27,4.17-.27h2.03c1.01,0,2.3,.11,4.17,.27l.75,.05-.05-.69c-.21,0-.32,0-.59-.05-2.62-.27-3.47-1.01-3.47-3.15v-12.76H27.29v12.76c0,2.14-.85,2.88-3.47,3.15-.27,.05-.37,.05-.59,.05l-.05,.69,.75-.05c1.87-.16,3.15-.27,4.17-.27h2.03c1.01,0,2.3,.11,4.17,.27l.75,.05-.05-.69c-.21,0-.32,0-.59-.05Z"/></g></g></svg>
