<?xml version="1.0" encoding="UTF-8"?><svg xmlns="http://www.w3.org/2000/svg" viewBox="0 0 532.93 540.64"><g id="a"/><g id="b"><g id="c"><path d="M160.49,164.46c-13.98,1.31-28.32-17.2-34.56-19.19l-4.68,.44,1.01,10.79c.2,2.13,1.12,2.79,3.75,2.81,.27,.03,.38,.02,.59,0l.12,.69-.75,.02c-1.88,.01-3.16,.03-4.17,.12l-2.02,.19c-1.01,.09-2.28,.32-4.12,.65l-.74,.12v-.7c.2-.02,.31-.03,.57-.11,2.58-.51,3.36-1.33,3.16-3.46l-2.41-25.84c-.2-2.13-1.12-2.79-3.75-2.81-.27-.03-.38-.02-.59,0l-.12-.69,.75-.02c1.88-.01,2.79,0,4.17-.12,1.33-.12,5.61-.79,8.27-1.04,7.34-.69,11.99,2.63,12.42,7.21s-2.53,8.5-6.95,10.57c4.46,2.37,16.13,15.33,27.34,18.2,4.01,1.02,8.39-.35,10.78-1.7-.28,.99-3.97,3.48-8.06,3.86Zm-36.9-36.78c-3.35,.31-3.97,.53-3.74,2.98l1.29,13.77,7.71-.72c3.17-1.69,5.51-4.75,5.15-8.63-.4-4.25-3.97-8-10.4-7.4Z"/><path d="M343.5,249.97c-2.03,1.49-7.26,2.72-11.32,2.72-10.57,0-19.17-6.73-19.17-16.87,0-9.61,8.06-17.94,19.17-17.94,6.84,0,9.02,3.04,10.95,1.87l.37,6.84h-.59c-1.76-5.87-5.77-7.48-11.43-7.48-8.44,0-14.26,7.74-13.88,16.66,.43,9.45,7.26,15.7,15.27,15.7,5.93,0,9.83-1.71,10.57-8.6h.91l-.85,7.1Z"/><path d="M526.18,440.3l-.78-.18c.63-1.52,.42-1.88-1.95-2.28l-22.17-3.71,.19-1.11,26.5-25.99-14.64-2.45c-1.95-.33-2.94-.22-4.94,2.69l-.63-.11,3.87-6.93,.78,.19c-.63,1.52-.42,1.88,1.95,2.27l18.59,3.11-.17,1-26.57,26.09,18.28,3.06c1.95,.33,2.94,.22,4.94-2.69l.63,.11-3.87,6.93Z"/><path d="M260.09,77.93c-2.14,3.47-2.94,4.33-6.89,4.33h-5.71c-2.56,0-2.72-.16-2.72-3.1v-11.31h7.26c1.98,0,2.94,.27,4.43,3.47h.64l-2.67-7.42h-.8c.37,1.6,.11,1.92-2.3,1.92h-6.57v-13.04l9.51,.11c3.26,.05,3.63,.27,4.59,3.9h.75l-1.01-5.77h-16.66c-1.01,0-2.3-.11-4.17-.27l-.75-.05,.05,.69c.21,0,.32,0,.59,.05,2.62,.27,3.47,1.01,3.47,3.15v25.95c0,2.14-.85,2.88-3.47,3.15-.27,.05-.37,.05-.59,.05l-.05,.69,.75-.05c1.87-.16,3.15-.27,4.17-.27,0,0,5.07-.05,8.33,0,3.26,.05,8.38,.27,8.38,.27,.53-2.03,.43-3.1,2.35-6.57l-.91,.11Z"/><path d="M101.75,370.61h-.8c.37-1.6,.11-1.92-2.3-1.92h-8.44v27.5c0,2.14,.85,2.88,3.47,3.15,.27,.05,.37,.05,.59,.05l.05,.69-.75-.05c-1.87-.16-3.15-.27-4.17-.27h-2.03c-1.01,0-2.3,.11-4.17,.27l-.75,.05,.05-.69c.21,0,.32,0,.59-.05,2.62-.27,3.47-1.01,3.47-3.15v-27.5h-9.13c-1.98,0-2.94,.27-4.43,3.47h-.64l2.67-7.42h.8c-.37,1.6-.11,1.92,2.3,1.92h21.2c1.98,0,2.94-.27,4.43-3.47h.64l-2.67,7.42Z"/><path d="M126.18,450.13c-2.51-1.12-7-2.08-10.89-.69-10.89,3.9-21.31,17.89-25.53,20.67,4.59,1.66,7.9,5.23,7.9,9.88s-4.33,8.33-11.7,8.33c-2.67,0-7-.27-8.33-.27s-2.3,.11-4.17,.27l-.75,.05,.05-.69c.21,0,.32,0,.59-.05,2.62-.27,3.47-1.01,3.47-3.15v-25.95c0-2.14-.85-2.88-3.47-3.15-.27-.05-.37-.05-.59-.05l-.05-.69,.75,.05c1.87,.16,3.15,.27,4.17,.27h2.03c1.01,0,2.3-.11,4.17-.27l.75-.05-.05,.69c-.21,0-.32,0-.59,.05-2.62,.27-3.47,1.01-3.47,3.15v10.84h4.7c6.03-2.56,18.58-22.32,32.63-22.32,4.11,0,8.01,2.14,8.38,3.1Zm-32.04,28.62c0-3.9-2.62-6.73-5.93-8.12h-7.74v13.83c0,2.46,.64,2.62,4.01,2.62,6.46,0,9.67-4.06,9.67-8.33Z"/><path d="M31.74,539.93c-2.25-.86-2.87-1.98-3.29-5.04-.45-3.2-.88-6.83-1.3-10.35l-2.56-21.11-11.88,16.46c-2.53,3.5-5.51,7.96-7.65,10.33-1.89,2.05-3.33,2.36-4.67,2.26l-.24-.02-.15,.63,.29,.05s2.58,.25,4.75,.75c1.87,.42,4.39,1.42,4.42,1.43l.28,.08,.15-.63-.23-.09c-1-.37-1.57-1.07-1.78-1.63-.18-.49,0-1.2,.57-2.19,1.37-2.45,3.72-6.02,5.07-8.03l10.11,2.4c.36,3.08,.68,6.98,.78,9.58,.06,1.31-.04,1.97-.36,2.26-.27,.25-.86,.71-1.77,.6l-.23-.03-.26,.62,.32,.06s2.03,.14,4.65,.72c2.77,.62,4.7,1.5,4.73,1.51l.26,.08,.25-.61-.26-.1Zm-9.68-29.45c.83,5.73,1.18,9.28,1.43,12.68-1.04-.21-3.12-.7-4.84-1.11-1.45-.34-2.94-.7-4.01-.99,.59-.85,7.14-10.2,7.41-10.58Z"/><path d="M302.04,485.82l-.42,.68c-1.17-1.15-1.59-1.09-2.84,.96l-4.4,7.2,23.47,14.34c1.82,1.11,2.91,.77,4.5-1.32,.18-.2,.24-.29,.35-.47l.62,.32-.44,.61c-1.11,1.51-1.87,2.55-2.4,3.41l-1.06,1.73c-.53,.87-1.11,2.02-1.94,3.69l-.34,.67-.56-.41c.11-.18,.17-.27,.26-.53,1.14-2.37,.94-3.49-.88-4.61l-23.47-14.34-4.76,7.79c-1.03,1.69-1.3,2.65,.65,5.59l-.33,.55-4.94-6.15,.42-.68c1.17,1.15,1.58,1.09,2.84-.96l11.06-18.09c1.03-1.69,1.3-2.64-.65-5.59l.33-.55,4.94,6.15Z"/><path d="M433.39,456.4c-2.14,3.47-2.94,4.33-6.89,4.33h-5.71c-2.56,0-2.72-.16-2.72-3.1v-11.31h7.26c1.98,0,2.94,.27,4.43,3.47h.64l-2.67-7.42h-.8c.37,1.6,.11,1.92-2.3,1.92h-6.57v-13.04l9.51,.11c3.26,.05,3.63,.27,4.59,3.9h.75l-1.01-5.77h-16.66c-1.01,0-2.3-.11-4.17-.27l-.75-.05,.05,.69c.21,0,.32,0,.59,.05,2.62,.27,3.47,1.01,3.47,3.15v25.95c0,2.14-.85,2.88-3.47,3.15-.27,.05-.37,.05-.59,.05l-.05,.69,.75-.05c1.87-.16,3.15-.27,4.17-.27,0,0,5.07-.05,8.33,0,3.26,.05,8.38,.27,8.38,.27,.53-2.03,.43-3.1,2.35-6.57l-.91,.11Z"/><g><path d="M89,36.22c-1.85,1.71-6.91,3.53-10.94,3.99-10.51,1.2-19.81-4.52-20.96-14.6-1.09-9.55,5.98-18.74,17.02-19.99,6.79-.77,9.31,2,11.09,.62l1.14,6.75-.58,.07c-2.41-5.64-6.58-6.78-12.2-6.14-8.38,.95-13.29,9.31-11.91,18.12,1.49,9.34,8.99,14.78,16.95,13.87,5.89-.67,9.57-2.81,9.53-9.74l.9-.1-.05,7.15Z"/><path d="M132.05,32.86c-2.63,.03-3.56-.62-3.8-2.74l-2.93-25.79c-.24-2.12,.52-2.96,3.09-3.52,.26-.08,.37-.1,.58-.12l-.03-.7-.74,.14c-1.84,.37-3.1,.62-4.11,.74l-2.02,.23c-1.01,.11-2.29,.15-4.17,.21l-.75,.03,.13,.68c.21-.02,.32-.04,.59-.01,2.63-.03,3.56,.62,3.8,2.74l1.26,11.12-19.42,2.21-1.26-11.12c-.24-2.12,.52-2.96,3.09-3.52,.26-.08,.37-.1,.58-.12l-.03-.7-.74,.14c-1.84,.37-3.1,.62-4.11,.74l-2.02,.23c-1.01,.11-2.29,.15-4.17,.21l-.75,.03,.13,.68c.21-.02,.32-.04,.59-.01,2.63-.03,3.56,.62,3.81,2.74l2.93,25.79c.24,2.12-.52,2.96-3.09,3.52-.26,.08-.37,.1-.58,.12l.03,.7,.74-.14c1.84-.37,3.1-.62,4.11-.74l2.02-.23c1.01-.11,2.29-.15,4.17-.21l.75-.03-.13-.68c-.21,.02-.32,.04-.59,.01-2.63,.03-3.56-.62-3.81-2.74l-1.44-12.68,19.42-2.21,1.44,12.68c.24,2.12-.52,2.96-3.09,3.52-.26,.08-.37,.1-.58,.12l.03,.7,.74-.14c1.84-.37,3.1-.62,4.11-.74l2.02-.23c1.01-.11,2.29-.15,4.17-.21l.75-.03-.13-.68c-.21,.02-.32,.04-.59,.01Z"/></g><path d="M457.36,404.09c-2.14,3.47-2.94,4.33-6.89,4.33h-5.71c-2.56,0-2.72-.16-2.72-3.1v-11.31h7.26c1.98,0,2.94,.27,4.43,3.47h.64l-2.67-7.42h-.8c.37,1.6,.11,1.92-2.3,1.92h-6.57v-13.04l9.51,.11c3.26,.05,3.63,.27,4.59,3.9h.75l-1.01-5.77h-16.66c-1.01,0-2.3-.11-4.17-.27l-.75-.05,.05,.69c.21,0,.32,0,.59,.05,2.62,.27,3.47,1.01,3.47,3.15v25.95c0,2.14-.85,2.88-3.47,3.15-.27,.05-.37,.05-.59,.05l-.05,.69,.75-.05c1.87-.16,3.15-.27,4.17-.27,0,0,5.07-.05,8.33,0,3.26,.05,8.38,.27,8.38,.27,.53-2.03,.43-3.1,2.35-6.57l-.91,.11Z"/><path d="M397.67,194.47c-2.62-.27-3.47-1.01-3.47-3.15v-25.95c0-2.14,.85-2.88,3.47-3.15,.27-.05,.37-.05,.59-.05l.05-.69-.75,.05c-1.87,.16-3.15,.27-4.17,.27h-2.03c-1.01,0-2.3-.11-4.17-.27l-.75-.05,.05,.69c.21,0,.32,0,.59,.05,2.62,.27,3.47,1.01,3.47,3.15v11.19h-19.55v-11.19c0-2.14,.85-2.88,3.47-3.15,.27-.05,.37-.05,.59-.05l.05-.69-.75,.05c-1.87,.16-3.15,.27-4.17,.27h-2.03c-1.01,0-2.3-.11-4.17-.27l-.75-.05,.05,.69c.21,0,.32,0,.59,.05,2.62,.27,3.47,1.01,3.47,3.15v25.95c0,2.14-.85,2.88-3.47,3.15-.27,.05-.37,.05-.59,.05l-.05,.69,.75-.05c1.87-.16,3.15-.27,4.17-.27h2.03c1.01,0,2.3,.11,4.17,.27l.75,.05-.05-.69c-.21,0-.32,0-.59-.05-2.62-.27-3.47-1.01-3.47-3.15v-12.76h19.55v12.76c0,2.14-.85,2.88-3.47,3.15-.27,.05-.37,.05-.59,.05l-.05,.69,.75-.05c1.87-.16,3.15-.27,4.17-.27h2.03c1.01,0,2.3,.11,4.17,.27l.75,.05-.05-.69c-.21,0-.32,0-.59-.05Z"/><g><path d="M193.34,332.67l-.99,1.29c-1.48,1.89-1.7,2.01-3.89,2.01h-3.12c-1.39,0-1.44-.06-1.44-1.65v-13.8c0-1.14,.44-1.54,1.88-1.69,.14-.03,.19-.03,.31-.03h.08l.04-.57-.52,.04c-1.08,.09-1.77,.15-2.33,.15h-1.14c-.56,0-1.25-.06-2.34-.15l-.52-.04,.04,.57h.08c.12,0,.17,0,.32,.03,1.44,.15,1.87,.54,1.87,1.68v14.58c0,1.14-.44,1.54-1.88,1.69-.14,.03-.2,.03-.31,.03h-.08l-.04,.57,.52-.04c.98-.08,1.75-.15,2.33-.15h1.14c2.37,0,8.31,.21,8.37,.21h.07l.02-.06c.32-1.2,.81-2.58,2.27-4.53l.1-.14h-.84Z"/><path d="M214.34,336.93c-1.33-.17-1.8-.7-2.42-2.3-.65-1.67-1.35-3.57-2.03-5.42l-4.09-11.06-4.3,10.41c-.91,2.21-1.95,5-2.8,6.56-.76,1.35-1.5,1.7-2.23,1.82l-.13,.02v.36h.16s1.43-.2,2.66-.21c1.07-.01,2.55,.21,2.57,.21h.16v-.35l-.14-.02c-.59-.07-.98-.37-1.17-.65-.16-.24-.15-.65,.02-1.25,.42-1.5,1.23-3.72,1.71-4.98h5.77c.59,1.61,1.26,3.68,1.65,5.07,.2,.7,.23,1.07,.1,1.27-.11,.17-.38,.5-.88,.55h-.13l-.06,.38h.18s1.11-.2,2.6-.22c1.57-.02,2.73,.21,2.75,.21h.15l.06-.35-.15-.02Zm-9-14.65c1.18,2.99,1.83,4.86,2.4,6.66-.59,.02-1.78,.02-2.75,.02-.83,0-1.68,0-2.29-.02,.21-.53,2.55-6.42,2.64-6.66Z"/></g><path d="M466.95,34.13l-13.17-23.88-.93,.7-10.47,7.78-10.48,7.78c-6.17,4.58-8.17,13.78-4.46,20.51,1.82,3.3,4.73,5.53,8.2,6.28,3.11,.68,6.31,.08,9.12-1.67l6.34,11.5,.92-.72,10.47-7.77c6.17-4.58,8.17-13.78,4.46-20.51Zm-29.43-9.22c-.1,.23-.2,.46-.29,.69-.03,.08-.06,.17-.09,.25-.07,.19-.14,.38-.2,.57-.03,.08-.06,.16-.08,.25-.08,.25-.15,.5-.22,.75,0,.02-.01,.04-.02,.06-.07,.27-.13,.55-.19,.82-.02,.08-.03,.16-.05,.24-.04,.2-.08,.41-.11,.61-.01,.09-.03,.17-.04,.26-.03,.23-.06,.46-.08,.7,0,.05-.01,.1-.02,.14-.03,.28-.04,.56-.06,.84,0,.07,0,.14,0,.22,0,.21,0,.43,0,.64,0,.09,0,.18,0,.26,0,.22,.02,.44,.03,.66,0,.06,0,.13,.01,.19,.02,.28,.05,.56,.09,.84,0,.06,.02,.12,.03,.18,.03,.22,.07,.44,.11,.66,.02,.09,.03,.17,.05,.26,.04,.21,.09,.41,.14,.61,.02,.07,.03,.15,.05,.22,.07,.27,.15,.54,.23,.81,.01,.04,.03,.07,.04,.11,.08,.23,.16,.46,.25,.69,.03,.08,.06,.16,.1,.24,.08,.19,.16,.38,.24,.57,.04,.08,.07,.15,.11,.23,.12,.26,.25,.51,.39,.76l5.86,10.63c-2.38,1.51-5.09,2.04-7.71,1.47-2.89-.63-5.33-2.51-6.86-5.29-3.24-5.88-1.49-13.91,3.89-17.92l4.44-3.3s-.02,.05-.03,.08Zm10.51-7.86s-.04,.09-.06,.13c-.06,.13-.12,.25-.18,.38-.03,.07-.06,.14-.09,.21-.05,.12-.1,.23-.15,.35-.03,.08-.06,.15-.09,.23-.04,.11-.09,.23-.13,.35-.03,.08-.06,.17-.09,.25-.04,.12-.08,.23-.12,.35-.03,.08-.05,.17-.08,.26-.04,.12-.07,.25-.11,.37-.02,.09-.05,.17-.07,.26-.03,.13-.06,.26-.1,.4-.02,.08-.04,.17-.06,.25-.03,.15-.06,.3-.09,.45-.01,.07-.03,.15-.04,.22-.04,.23-.07,.45-.1,.69-.62,4.95,1.12,10.03,5.18,15.13,3.63,4.56,5.21,9.09,4.7,13.45-.03,.25-.07,.5-.11,.75-.01,.06-.02,.13-.03,.19-.04,.22-.09,.44-.14,.65,0,.02,0,.05-.02,.07-.06,.23-.12,.46-.19,.69-.02,.06-.03,.11-.05,.17-.06,.19-.12,.38-.19,.57-.01,.03-.02,.07-.04,.1-.08,.21-.16,.42-.25,.63-.02,.05-.04,.09-.06,.14-.07,.17-.15,.34-.23,.51-.02,.04-.03,.07-.05,.11-.09,.19-.19,.38-.29,.57-.02,.04-.04,.07-.06,.11-.08,.16-.17,.31-.26,.46-.02,.04-.04,.07-.06,.11-.1,.17-.21,.34-.31,.51-.02,.03-.03,.05-.05,.08-.09,.14-.19,.28-.28,.42-.02,.03-.05,.07-.07,.1-.11,.15-.21,.3-.32,.44l-.03,.04c-.1,.13-.19,.25-.29,.37l-.07,.09c-.21,.26-.41,.5-.61,.71l-.06,.07c-.19,.21-.37,.4-.54,.57l-.02,.02-11.99-21.74c-3.24-5.88-1.49-13.91,3.89-17.92l4.44-3.3Zm13.27,35.97l-4.57,3.39s.02-.05,.03-.07c.06-.12,.12-.25,.18-.38,.03-.06,.06-.12,.08-.18,.08-.18,.16-.37,.24-.56v-.02c.09-.2,.16-.4,.24-.6,.02-.06,.04-.13,.07-.2,.05-.14,.1-.28,.14-.42,.03-.08,.05-.16,.07-.24,.04-.13,.08-.27,.12-.4,.02-.09,.05-.17,.07-.26,.03-.14,.07-.27,.1-.41,.02-.09,.04-.18,.06-.27,.03-.15,.06-.3,.09-.45,.01-.08,.03-.16,.04-.25,.04-.21,.07-.43,.09-.65,0-.02,0-.04,0-.06,.36-3.08-.17-6.19-1.6-9.32-.86-1.88-2.03-3.75-3.52-5.63-.23-.29-.45-.58-.67-.87-.08-.11-.15-.21-.22-.32-.13-.18-.27-.37-.39-.55-.09-.13-.17-.26-.26-.39-.11-.16-.21-.32-.31-.48-.09-.15-.17-.29-.26-.43-.09-.14-.18-.29-.26-.43-.09-.16-.17-.31-.26-.47-.07-.13-.15-.26-.22-.4-.08-.16-.16-.33-.24-.49-.06-.12-.12-.25-.18-.37-.07-.16-.14-.32-.21-.48-.05-.13-.11-.25-.16-.38-.06-.16-.12-.32-.18-.47-.05-.13-.1-.25-.14-.38-.05-.16-.1-.31-.15-.47-.04-.13-.08-.25-.12-.38-.05-.16-.08-.31-.12-.47-.03-.13-.07-.25-.1-.38-.04-.15-.06-.31-.09-.46-.03-.13-.06-.26-.08-.39-.03-.15-.04-.29-.06-.44-.02-.13-.04-.27-.06-.4-.02-.14-.03-.28-.04-.43-.01-.14-.03-.27-.04-.41,0-.14,0-.27-.01-.41,0-.14-.01-.28-.01-.42,0-.13,0-.26,.01-.39,0-.15,0-.29,.01-.44,0-.12,.02-.25,.03-.37,.01-.15,.02-.31,.04-.46v-.05c.04-.23,.07-.46,.12-.69,.01-.07,.03-.14,.04-.2,.04-.2,.08-.4,.13-.6,.02-.06,.03-.13,.05-.19,.05-.18,.1-.36,.15-.54,.03-.1,.06-.2,.09-.3,.03-.1,.07-.21,.11-.31,.09-.25,.18-.49,.28-.72l.02-.06c.06-.15,.13-.3,.2-.45v-.02c1.09-2.34,2.59-4.04,3.53-4.97l12,21.75c3.24,5.88,1.49,13.91-3.89,17.92Z"/></g></g></svg>