<?xml version="1.0" encoding="UTF-8"?><svg xmlns="http://www.w3.org/2000/svg" viewBox="0 0 56.78 38.29"><g id="a"/><g id="b"><g id="c"><path fill="#a5a5a5" d="M48.72,38.23c-13.98,1.31-28.32-17.2-34.56-19.19l-4.68,.44,1.01,10.79c.2,2.13,1.12,2.79,3.75,2.81,.27,.03,.38,.02,.59,0l.12,.69-.75,.02c-1.88,.01-3.16,.03-4.17,.12l-2.02,.19c-1.01,.09-2.28,.32-4.12,.65l-.74,.12v-.7c.2-.02,.31-.03,.57-.11,2.58-.51,3.36-1.33,3.16-3.46L4.46,4.77c-.2-2.13-1.12-2.79-3.75-2.81-.27-.03-.38-.02-.59,0l-.12-.69,.75-.02c1.88-.01,2.79,0,4.17-.12,1.33-.12,5.61-.79,8.27-1.04,7.34-.69,11.99,2.63,12.42,7.21s-2.53,8.5-6.95,10.57c4.46,2.37,16.13,15.33,27.34,18.2,4.01,1.02,8.39-.35,10.78-1.7-.28,.99-3.97,3.48-8.06,3.86ZM11.82,1.45c-3.35,.31-3.97,.53-3.74,2.98l1.29,13.77,7.71-.72c3.17-1.69,5.51-4.75,5.15-8.63-.4-4.25-3.97-8-10.4-7.4Z"/></g></g></svg>
