<?xml version="1.0" encoding="UTF-8"?><svg xmlns="http://www.w3.org/2000/svg" viewBox="0 0 53.45 41.33"><g id="a"/><g id="b"><g id="c"><path fill="#c8c8c8" d="M53.45,3.1c-2.51-1.12-7-2.08-10.89-.69-10.89,3.9-21.31,17.89-25.53,20.67,4.59,1.66,7.9,5.23,7.9,9.88s-4.33,8.33-11.7,8.33c-2.67,0-7-.27-8.33-.27s-2.3,.11-4.17,.27l-.75,.05,.05-.69c.21,0,.32,0,.59-.05,2.62-.27,3.47-1.01,3.47-3.15V11.48c0-2.14-.85-2.88-3.47-3.15-.27-.05-.37-.05-.59-.05l-.05-.69,.75,.05c1.87,.16,3.15,.27,4.17,.27h2.03c1.01,0,2.3-.11,4.17-.27l.75-.05-.05,.69c-.21,0-.32,0-.59,.05-2.62,.27-3.47,1.01-3.47,3.15v10.84h4.7C18.48,19.76,31.03,0,45.07,0c4.11,0,8.01,2.14,8.38,3.1ZM21.41,31.72c0-3.9-2.62-6.73-5.93-8.12H7.74v13.83c0,2.46,.64,2.62,4.01,2.62,6.46,0,9.67-4.06,9.67-8.33Z"/></g></g></svg>
