<?xml version="1.0" encoding="UTF-8"?><svg xmlns="http://www.w3.org/2000/svg" viewBox="0 0 32.04 36.9"><g id="a"/><g id="b"><g id="c"><path fill="#d3d3d3" d="M29.37,7.42h-.8c.37-1.6,.11-1.92-2.3-1.92h-8.44v27.5c0,2.14,.85,2.88,3.47,3.15,.27,.05,.37,.05,.59,.05l.05,.69-.75-.05c-1.87-.16-3.15-.27-4.17-.27h-2.03c-1.01,0-2.3,.11-4.17,.27l-.75,.05,.05-.69c.21,0,.32,0,.59-.05,2.62-.27,3.47-1.01,3.47-3.15V5.5H5.07c-1.98,0-2.94,.27-4.43,3.47H0L2.67,1.55h.8c-.37,1.6-.11,1.92,2.3,1.92H26.97c1.98,0,2.94-.27,4.43-3.47h.64l-2.67,7.42Z"/></g></g></svg>
