<?xml version="1.0" encoding="UTF-8"?><svg xmlns="http://www.w3.org/2000/svg" viewBox="0 0 822.05 260.17"><defs><style>.d{fill:#010101;}</style></defs><g id="a"/><g id="b"><g id="c"><g><path class="d" d="M85.29,91.89c-5.68,4.18-20.31,7.62-31.67,7.62C24.05,99.51,0,80.69,0,52.31,0,25.42,22.55,2.12,53.62,2.12c19.12,0,25.24,8.51,30.62,5.23l1.05,19.12h-1.64c-4.93-16.43-16.13-20.91-31.96-20.91C28.08,5.56,11.8,27.22,12.85,52.16c1.2,26.44,20.31,43.91,42.72,43.91,16.58,0,27.48-4.78,29.57-24.05h2.54l-2.39,19.87Z"/><path class="d" d="M446.73,119.23c-39.28,0-74.39-55.27-91.26-62.44h-13.15v30.32c0,5.98,2.39,8.07,9.71,8.81,.75,.15,1.05,.15,1.64,.15l.15,1.94-2.09-.15c-5.23-.45-8.81-.75-11.65-.75h-5.68c-2.84,0-6.42,.3-11.65,.75l-2.09,.15,.15-1.94c.6,0,.9,0,1.64-.15,7.32-.75,9.71-2.84,9.71-8.81V14.52c0-5.97-2.39-8.06-9.71-8.81-.75-.15-1.05-.15-1.64-.15l-.15-1.94,2.09,.15c5.23,.45,7.77,.75,11.65,.75s15.83-.75,23.3-.75c20.61,0,32.71,10.45,32.71,23.3s-9.26,23-22.11,27.63c11.8,7.77,40.93,46.9,71.4,57.8,10.9,3.88,23.45,1.2,30.47-1.94-1.05,2.69-11.95,8.66-23.45,8.66ZM353.52,7.2c-9.41,0-11.2,.45-11.2,7.32V53.21h21.66c9.26-3.88,16.58-11.8,16.58-22.7,0-11.95-8.96-23.3-27.03-23.3Z"/><path class="d" d="M510.2,91.89c-5.68,4.18-20.31,7.62-31.67,7.62-29.57,0-53.62-18.82-53.62-47.2,0-26.89,22.55-50.19,53.62-50.19,19.12,0,25.24,8.51,30.62,5.23l1.05,19.12h-1.64c-4.93-16.43-16.13-20.91-31.96-20.91-23.6,0-39.88,21.66-38.84,46.6,1.2,26.44,20.31,43.91,42.72,43.91,16.58,0,27.48-4.78,29.57-24.05h2.54l-2.39,19.87Z"/><path class="d" d="M814.58,103.81l-2.24-.15c1.05-4.48,.3-5.38-6.42-5.38h-62.88v-3.14l61.09-83.95h-41.53c-5.53,0-8.21,.75-12.4,9.71h-1.79l7.47-20.91,2.24,.15c-1.05,4.48-.3,5.38,6.42,5.38h52.73v2.84l-61.24,84.24h51.83c5.53,0,8.21-.75,12.4-9.71h1.79l-7.47,20.91Z"/><path class="d" d="M296.17,80.05c-5.97,9.71-8.21,12.1-19.27,12.1h-15.98c-7.17,0-7.62-.45-7.62-8.66v-31.63h20.31c5.53,0,8.21,.75,12.4,9.71h1.79l-7.47-20.76h-2.24c1.05,4.48,.3,5.38-6.42,5.38h-18.37V9.7l26.59,.3c9.11,.15,10.16,.75,12.85,10.9h2.09l-2.84-16.13h-46.6c-2.84,0-6.42-.3-11.65-.75l-2.09-.15,.15,1.94c.6,0,.9,0,1.64,.15,7.32,.75,9.71,2.84,9.71,8.81V87.37c0,5.98-2.39,8.07-9.71,8.81-.75,.15-1.05,.15-1.64,.15l-.15,1.94,2.09-.15c5.23-.45,8.81-.75,11.65-.75,0,0,14.19-.15,23.3,0,9.11,.15,23.45,.75,23.45,.75,1.49-5.68,1.2-8.66,6.57-18.37l-2.54,.3Z"/><path class="d" d="M329.42,156.51h-2.24c1.05-4.48,.3-5.38-6.42-5.38h-23.6v76.92c0,5.98,2.39,8.07,9.71,8.81,.75,.15,1.05,.15,1.64,.15l.15,1.94-2.09-.15c-5.23-.45-8.81-.75-11.65-.75h-5.68c-2.84,0-6.42,.3-11.65,.75l-2.09,.15,.15-1.94c.6,0,.9,0,1.64-.15,7.32-.75,9.71-2.84,9.71-8.81v-76.92h-25.54c-5.53,0-8.21,.75-12.4,9.71h-1.79l7.47-20.76h2.24c-1.05,4.48-.3,5.38,6.42,5.38h59.3c5.53,0,8.21-.75,12.4-9.71h1.79l-7.47,20.76Z"/><path class="d" d="M579.87,260.17c-39.29,0-74.39-55.27-91.26-62.44h-13.15v30.32c0,5.98,2.39,8.07,9.71,8.81,.75,.15,1.05,.15,1.64,.15l.15,1.94-2.09-.15c-5.23-.45-8.81-.75-11.65-.75h-5.68c-2.84,0-6.42,.3-11.65,.75l-2.09,.15,.15-1.94c.6,0,.9,0,1.64-.15,7.32-.75,9.71-2.84,9.71-8.81v-72.59c0-5.97-2.39-8.06-9.71-8.81-.75-.15-1.05-.15-1.64-.15l-.15-1.94,2.09,.15c5.23,.45,7.77,.75,11.65,.75s15.83-.75,23.3-.75c20.61,0,32.71,10.45,32.71,23.3s-9.26,23-22.11,27.63c11.8,7.77,40.93,46.9,71.4,57.8,10.9,3.88,23.45,1.2,30.47-1.94-1.05,2.69-11.95,8.66-23.45,8.66Zm-93.21-112.03c-9.41,0-11.2,.45-11.2,7.32v38.69h21.66c9.26-3.88,16.58-11.8,16.58-22.7,0-11.95-8.96-23.3-27.04-23.3Z"/><path class="d" d="M434.2,237.58c-6.69-.87-9.1-3.53-12.21-11.6-3.29-8.41-6.82-18.02-10.23-27.31l-20.62-55.78-21.7,52.48c-4.61,11.15-9.84,25.23-14.14,33.06-3.82,6.79-7.55,8.58-11.24,9.16l-.66,.1v1.8l.83-.04c.09,0,7.19-.98,13.4-1.04,5.38-.06,12.86,1.04,12.96,1.04l.82,.04v-1.82l-.69-.08c-2.96-.36-4.96-1.89-5.88-3.28-.8-1.21-.76-3.28,.13-6.32,2.14-7.56,6.23-18.77,8.6-25.12h29.08c2.98,8.14,6.37,18.57,8.31,25.57,1.02,3.53,1.16,5.38,.49,6.38-.56,.84-1.89,2.5-4.44,2.77l-.64,.07-.3,1.85,.91-.04c.1,0,5.6-.94,13.11-1.04,7.93-.11,13.77,1.04,13.85,1.04l.75,.05,.3-1.81-.76-.1Zm-45.37-73.88c5.96,15.07,9.22,24.49,12.09,33.59-2.96,.1-8.95,.1-13.88,.1-4.17,0-8.46,0-11.55-.1,1.06-2.68,12.84-32.38,13.34-33.59Z"/><path class="d" d="M630.96,156.51h-2.24c1.05-4.48,.3-5.38-6.42-5.38h-23.6v76.92c0,5.98,2.39,8.07,9.71,8.81,.75,.15,1.05,.15,1.64,.15l.15,1.94-2.09-.15c-5.23-.45-8.81-.75-11.65-.75h-5.68c-2.84,0-6.42,.3-11.65,.75l-2.09,.15,.15-1.94c.6,0,.9,0,1.64-.15,7.32-.75,9.71-2.84,9.71-8.81v-76.92h-25.54c-5.53,0-8.21,.75-12.4,9.71h-1.79l7.47-20.76h2.24c-1.05,4.48-.3,5.38,6.42,5.38h59.3c5.53,0,8.21-.75,12.4-9.71h1.79l-7.47,20.76Z"/><path class="d" d="M144.22,198.7s-16.7-.59-23.42-.59h-3.19c-1.59,0-3.61,.17-6.55,.42l-1.17,.08,.08-1.09c.34,0,.5,0,.92-.08,4.11-.42,5.46-1.59,5.46-4.95v-40.79c0-3.36-1.34-4.53-5.46-4.95-.42-.08-.59-.08-.92-.08l-.08-1.09,1.17,.08c2.94,.25,4.95,.42,6.55,.42h3.19c1.59,0,3.61-.17,6.55-.42l1.18-.08-.08,1.09c-.34,0-.5,0-.92,.08-4.11,.42-5.46,1.59-5.46,4.95v38.61c0,4.62,.25,4.87,4.28,4.87h8.73c6.21,0,6.88-.34,11.08-5.71l2.69-3.53h1.76c-4.2,5.62-5.54,9.57-6.38,12.76Z"/><path class="d" d="M720.17,220.74c-5.97,9.71-8.21,12.1-19.27,12.1h-15.98c-7.17,0-7.62-.45-7.62-8.66v-31.63h20.31c5.53,0,8.21,.75,12.4,9.71h1.79l-7.47-20.76h-2.24c1.05,4.48,.3,5.38-6.42,5.38h-18.37v-36.48l26.59,.3c9.11,.15,10.16,.75,12.85,10.9h2.09l-2.84-16.13h-46.6c-2.84,0-6.42-.3-11.65-.75l-2.09-.15,.15,1.94c.6,0,.9,0,1.64,.15,7.32,.75,9.71,2.84,9.71,8.81v72.59c0,5.98-2.39,8.07-9.71,8.81-.75,.15-1.05,.15-1.64,.15l-.15,1.94,2.09-.15c5.23-.45,8.81-.75,11.65-.75,0,0,14.19-.15,23.3,0,9.11,.15,23.45,.75,23.45,.75,1.49-5.68,1.2-8.66,6.57-18.37l-2.54,.3Z"/><path class="d" d="M205.99,96.18c-7.32-.75-9.71-2.84-9.71-8.81V14.77c0-5.97,2.39-8.07,9.71-8.81,.75-.15,1.05-.15,1.64-.15l.15-1.94-2.09,.15c-5.23,.45-8.81,.75-11.65,.75h-5.68c-2.84,0-6.42-.3-11.65-.75l-2.09-.15,.15,1.94c.6,0,.9,0,1.64,.15,7.32,.75,9.71,2.84,9.71,8.81v31.29h-54.67V14.77c0-5.97,2.39-8.07,9.71-8.81,.75-.15,1.05-.15,1.64-.15l.15-1.94-2.09,.15c-5.23,.45-8.81,.75-11.65,.75h-5.68c-2.84,0-6.42-.3-11.65-.75l-2.09-.15,.15,1.94c.6,0,.9,0,1.64,.15,7.32,.75,9.71,2.84,9.71,8.81V87.36c0,5.97-2.39,8.07-9.71,8.81-.75,.15-1.05,.15-1.64,.15l-.15,1.94,2.09-.15c5.23-.45,8.81-.75,11.65-.75h5.68c2.84,0,6.42,.3,11.65,.75l2.09,.15-.15-1.94c-.6,0-.9,0-1.64-.15-7.32-.75-9.71-2.84-9.71-8.81V51.67h54.67v35.69c0,5.97-2.39,8.07-9.71,8.81-.75,.15-1.05,.15-1.64,.15l-.15,1.94,2.09-.15c5.23-.45,8.81-.75,11.65-.75h5.68c2.84,0,6.42,.3,11.65,.75l2.09,.15-.15-1.94c-.6,0-.9,0-1.64-.15Z"/><path class="d" d="M721.05,80.05c-5.97,9.71-8.21,12.1-19.27,12.1h-15.98c-7.17,0-7.62-.45-7.62-8.66v-31.63h20.31c5.53,0,8.21,.75,12.4,9.71h1.79l-7.47-20.76h-2.24c1.05,4.48,.3,5.38-6.42,5.38h-18.37V9.7l26.59,.3c9.11,.15,10.16,.75,12.85,10.9h2.09l-2.84-16.13h-46.6c-2.84,0-6.42-.3-11.65-.75l-2.09-.15,.15,1.94c.6,0,.9,0,1.64,.15,7.32,.75,9.71,2.84,9.71,8.81V87.37c0,5.98-2.39,8.07-9.71,8.81-.75,.15-1.05,.15-1.64,.15l-.15,1.94,2.09-.15c5.23-.45,8.81-.75,11.65-.75,0,0,14.19-.15,23.3,0,9.11,.15,23.45,.75,23.45,.75,1.49-5.68,1.2-8.66,6.57-18.37l-2.54,.3Z"/><path class="d" d="M630.87,96.18c-7.32-.75-9.71-2.84-9.71-8.81V14.77c0-5.97,2.39-8.07,9.71-8.81,.75-.15,1.05-.15,1.64-.15l.15-1.94-2.09,.15c-5.23,.45-8.81,.75-11.65,.75h-5.68c-2.84,0-6.42-.3-11.65-.75l-2.09-.15,.15,1.94c.6,0,.9,0,1.64,.15,7.32,.75,9.71,2.84,9.71,8.81v31.29h-54.67V14.77c0-5.97,2.39-8.07,9.71-8.81,.75-.15,1.05-.15,1.64-.15l.15-1.94-2.09,.15c-5.23,.45-8.81,.75-11.65,.75h-5.68c-2.84,0-6.42-.3-11.65-.75l-2.09-.15,.15,1.94c.6,0,.9,0,1.64,.15,7.32,.75,9.71,2.84,9.71,8.81V87.37c0,5.97-2.39,8.07-9.71,8.81-.75,.15-1.05,.15-1.64,.15l-.15,1.94,2.09-.15c5.23-.45,8.81-.75,11.65-.75h5.68c2.84,0,6.42,.3,11.65,.75l2.09,.15-.15-1.94c-.6,0-.9,0-1.64-.15-7.32-.75-9.71-2.84-9.71-8.81V51.67h54.67v35.69c0,5.97-2.39,8.07-9.71,8.81-.75,.15-1.05,.15-1.64,.15l-.15,1.94,2.09-.15c5.23-.45,8.81-.75,11.65-.75h5.68c2.84,0,6.42,.3,11.65,.75l2.09,.15-.15-1.94c-.6,0-.9,0-1.64-.15Z"/><path class="d" d="M207.46,197.63c-3.71-.48-5.05-1.96-6.77-6.43-1.83-4.67-3.78-10-5.68-15.15l-11.44-30.94-12.03,29.11c-2.56,6.19-5.46,13.99-7.84,18.34-2.12,3.76-4.19,4.76-6.23,5.08l-.37,.06v1l.46-.02c.05,0,3.99-.54,7.44-.58,2.98-.03,7.13,.58,7.19,.58l.46,.02v-1.01l-.38-.05c-1.64-.2-2.75-1.05-3.26-1.82-.44-.67-.42-1.82,.07-3.51,1.19-4.19,3.45-10.41,4.77-13.93h16.13c1.65,4.51,3.53,10.3,4.61,14.18,.57,1.96,.64,2.99,.27,3.54-.31,.46-1.05,1.39-2.46,1.54l-.35,.04-.17,1.03,.51-.02c.05,0,3.11-.52,7.27-.58,4.4-.06,7.64,.57,7.68,.58l.42,.03,.17-1.01-.42-.06Zm-25.16-40.98c3.31,8.36,5.11,13.58,6.71,18.63-1.64,.06-4.97,.06-7.7,.06-2.31,0-4.69,0-6.41-.06,.59-1.49,7.12-17.96,7.4-18.63Z"/></g></g></g></svg>